<svg width="196" height="34" viewBox="0 0 196 34" fill="none" xmlns="http://www.w3.org/2000/svg">
<path d="M0 33.25H195.779V0H0V33.25Z" fill="#FDE100"/>
<path fill-rule="evenodd" clip-rule="evenodd" d="M9.12866 12.4651L14.3061 15.9276L20.5249 11.7726L17.9362 10.0364L21.3034 7.7931L28.5538 12.6406L16.6418 20.5996L19.2305 22.3357L34.0037 12.4651L21.5662 4.15495L9.12866 12.4651ZM34.0037 20.7751L28.8166 17.3126L22.5978 21.4676L25.1865 23.194L21.8192 25.4471L14.5689 20.5996L26.4809 12.6406L23.8922 10.9045L9.12866 20.7751L21.5662 29.0852L34.0037 20.7751ZM34.0037 7.61747L31.4053 9.35367L28.8166 7.61747L34.0037 4.15495V7.61747ZM9.12866 25.6227L11.7174 23.8865L14.3061 25.6227L9.12866 29.0852V25.6227Z" fill="#003882"/>
<path fill-rule="evenodd" clip-rule="evenodd" d="M40.0601 24.527C41.6854 24.527 45.7242 24.3417 45.7242 20.1379C45.7242 17.8556 45.0138 16.2657 42.2888 15.9244C44.3714 15.5147 45.4128 14.1297 45.4128 12.2179C45.4128 8.67739 43.009 7.91666 40.0796 7.91666H33.2769V24.527H40.0601ZM162.148 24.527C164.426 24.527 166.723 24.2247 166.723 20.7036C166.723 16.6364 160.844 17.046 160.844 14.4613C160.844 13.525 161.419 13.0178 162.382 13.0178H165.535V10.9208H161.107C157.477 10.9208 156.582 12.5691 156.582 14.6954C156.582 18.7431 163.092 18.6456 163.092 20.9279C163.092 21.8447 162.596 22.469 161.594 22.469H156.932L153.477 10.9305H149.341L145.516 23.3078L143.113 17.9824C144.874 17.6605 145.575 16.5388 145.585 14.4906C145.585 12.1692 144.203 10.9305 142.071 10.9305H135.599V24.527H139.132V13.0178H140.31C141.302 13.0178 142.169 13.7493 142.169 15.0856C142.169 16.217 141.604 17.1533 140.699 17.0948L139.706 17.1048L142.928 24.5273H148.592L149.438 21.5134H153.098L153.935 24.5273L162.148 24.527ZM152.562 19.4357H149.945L151.19 13.8664L152.562 19.4357ZM113.157 24.9269C118.442 24.9269 118.442 21.4059 118.442 17.7971C118.442 14.1394 118.442 10.6574 113.157 10.6574C107.873 10.6574 107.873 14.1394 107.873 17.7971C107.873 21.4059 107.873 24.9269 113.157 24.9269ZM113.157 22.8592C111.61 22.8592 111.406 21.3376 111.406 17.7971C111.406 14.2565 111.61 12.7252 113.157 12.7252C114.705 12.7252 114.899 14.2565 114.899 17.7971C114.899 21.3376 114.705 22.8592 113.157 22.8592ZM96.3794 24.527H101.537C106.948 24.527 106.588 19.7283 106.588 17.6312C106.588 13.3884 105.81 10.8915 101.664 10.8915H96.3794V24.527ZM99.8245 13.008H101.216C103.114 13.008 103.114 15.2221 103.114 17.7288C103.114 21.1523 102.783 22.4593 101.129 22.4593H99.8245V13.008ZM127.24 17.2801H128.096C129.751 17.2801 130.276 18.1872 130.276 19.6502C130.276 21.9813 128.709 22.0009 128.009 22.0009H126.189V17.3094L127.24 17.2801ZM126.189 14.7442V10.5014H128.213C129.322 10.5014 130.101 11.389 130.101 12.6179C130.101 14.2273 129.099 14.7247 128.388 14.7247H127.24L126.189 14.7442ZM128.787 24.5368C130.412 24.5368 134.451 24.3514 134.451 20.1379C134.451 17.8556 133.741 16.2755 131.025 15.9244C133.108 15.5147 134.149 14.1297 134.149 12.2179C134.149 8.67739 131.736 7.91666 128.816 7.91666H122.004V24.5368H128.787ZM180.96 24.5268V22.4688H176.931V10.9303H173.486V24.5268H180.96ZM171.462 10.9303H168.007V24.5268H171.462V10.9303ZM87.3481 24.9267C92.6326 24.9267 92.6326 21.3959 92.6326 17.7676C92.6326 14.0904 92.6326 10.5987 87.3481 10.5987C82.0733 10.5987 82.0733 14.0904 82.0733 17.7676C82.0733 21.3959 82.0733 24.9267 87.3481 24.9267ZM87.3481 22.8589C85.8007 22.8589 85.6061 21.3178 85.6061 17.7676C85.6061 14.2075 85.8006 12.6762 87.3481 12.6762C88.8955 12.6762 89.0998 14.2075 89.0998 17.7676C89.0998 21.3178 88.8955 22.8589 87.3481 22.8589ZM53.1984 19.4257H50.5707L51.8164 13.8661L53.1984 19.4257ZM49.218 24.5268L50.0744 21.5129H53.7336L54.5707 24.5268H58.1812L54.1035 10.9303H49.9771L45.8118 24.5268H49.218ZM76.312 24.9267C79.3094 24.9267 81.0612 23.7367 81.0612 20.0304H77.6452C77.6064 21.1228 77.587 22.8589 76.312 22.8589C74.8619 22.8589 74.6478 21.9713 74.6478 17.7676C74.6478 13.4077 74.9787 12.6762 76.2438 12.6762C77.1489 12.6762 77.5577 13.3589 77.5577 15.2121H80.9541C81.0807 12.2275 79.4262 10.5987 76.1562 10.5987C71.2902 10.5987 71.154 13.7003 71.154 17.7676C71.154 21.8543 71.0274 24.9267 76.312 24.9267ZM61.9183 24.5268V15.4657L65.6846 24.5268H69.7623V10.9303H66.8232V19.7183L63.1543 10.9303H58.9792V24.5268H61.9183ZM38.2792 17.2604H38.8144C40.8387 17.2604 41.481 18.1577 41.481 19.6305C41.481 21.9518 39.5638 21.9714 38.7074 21.9714H37.452V17.2799L38.2792 17.2604ZM37.452 14.7147V10.4719H38.9507C40.3132 10.4719 41.2669 11.3692 41.2669 12.5884C41.2669 14.1977 40.0407 14.7049 39.1648 14.7049H37.7537L37.452 14.7147Z" fill="#003882"/>
</svg>
