<svg width="95" height="95" viewBox="0 0 95 95" fill="none" xmlns="http://www.w3.org/2000/svg">
<g clip-path="url(#clip0_106_1529)">
<rect width="95" height="95" rx="10" />
<path d="M23.2219 29.3533C25.6256 26.8156 28.8142 25.3333 32.5601 25.3333C39.8577 25.3333 44.696 30.6873 45.6217 38.7079C45.9218 41.3125 45.9191 44.9847 45.9161 49.2381C45.9155 49.6742 45.9155 50.1166 45.9155 50.5645V66.4983H35.88V54.7132C35.88 54.7132 35.8595 44.6268 35.7982 42.7417C35.5289 34.5315 30.6918 29.3727 23.2209 29.3672C20.9668 31.7601 19.7591 34.6859 19.581 39.1596C19.5565 39.7836 19.5627 41.9952 19.5708 44.9102C19.575 46.4205 19.5797 48.1196 19.581 49.8844C19.5884 57.5661 19.581 66.5 19.581 66.5H9.54543V48.3628C9.54543 47.7414 9.53416 47.1146 9.52285 46.4854C9.50009 45.2197 9.47715 43.9442 9.54543 42.6812C9.65882 40.5758 10.0213 38.5061 10.999 36.5834C13.2369 32.1786 17.8225 29.3425 22.7111 29.3425C22.8819 29.3425 23.0528 29.3467 23.2219 29.3533Z" fill="#820AD1"/>
<path d="M85.4545 50.7388C85.5228 49.4761 85.4999 48.2007 85.4772 46.9354C85.4658 46.3062 85.4545 45.6796 85.4545 45.0583V26.9244H75.4185C75.4185 26.9244 75.411 35.8567 75.4185 43.5368C75.4197 45.3013 75.4244 47 75.4286 48.51C75.4367 51.4246 75.4429 53.6358 75.4185 54.2597C75.2404 58.7327 74.0325 61.6579 71.7784 64.0505C64.3071 64.0452 59.4699 58.8869 59.2005 50.6784C59.1391 48.7936 59.1132 44.1166 59.1132 38.6996V26.9167L49.0845 26.9259V42.8568C49.0845 43.3046 49.0839 43.7467 49.0839 44.183C49.0808 48.4355 49.0782 52.1069 49.3783 54.7112C50.3021 62.7304 55.1407 68.0833 62.4387 68.0833C66.185 68.0833 69.3738 66.6013 71.7777 64.0641C71.9466 64.0707 72.1174 64.0746 72.2882 64.0746C77.177 64.0746 81.763 61.2391 84.0011 56.8351C84.9788 54.9126 85.3412 52.8434 85.4546 50.7383L85.4545 50.7388Z" fill="#820AD1"/>
</g>
<defs>
<clipPath id="clip0_106_1529">
<rect width="95" height="95" rx="10" fill="white"/>
</clipPath>
</defs>
</svg>
