<svg width="206" height="95" viewBox="0 0 206 95" fill="none" xmlns="http://www.w3.org/2000/svg">
<rect width="206" height="95" rx="10" fill="white"/>
<path d="M17.2644 28.5292C16.915 28.5583 16.5657 28.6456 16.2455 28.8494C15.4886 29.2861 15.0519 30.1013 15.0519 30.9165C15.0519 31.2659 15.1392 31.6444 15.3139 31.9937L27.0459 52.4027L30.8595 45.8229L37.0603 35.1089L33.2467 28.5292H17.2644Z" fill="#6EBB49"/>
<path d="M17.2644 28.5292C16.915 28.5583 16.5657 28.6456 16.2455 28.8494C15.4886 29.2861 15.0519 30.1013 15.0519 30.9165C15.0519 31.2659 15.1392 31.6444 15.3139 31.9937L27.0459 52.4027L30.8595 45.8229L37.0603 35.1089L33.2467 28.5292H17.2644Z" fill="#6EBB49"/>
<path d="M33.276 28.5292L43.2613 45.7938H50.2773H50.8304L58.8361 31.9355C58.9817 31.6153 59.069 31.295 59.069 30.9165C59.069 29.6355 58.0792 28.6165 56.8274 28.5292H33.276Z" fill="#00AE9C"/>
<path d="M50.306 45.7937H30.8885L27.0748 52.3735L35.1097 66.2317C35.2843 66.5229 35.5755 66.7558 35.8666 66.9596C36.245 67.1634 36.6526 67.2798 37.0602 67.2798C37.8462 67.2798 38.6031 66.8722 39.0689 66.2026L50.8591 45.7937H50.306Z" fill="#B8D335"/>
<path d="M126.928 34.7304H126.783C118.923 34.8177 114.061 40.7861 114.061 48.2684C114.061 55.4596 118.486 61.4862 126.521 61.4862H126.812C134.643 61.3988 139.534 56.1001 139.534 47.8317C139.505 40.9317 135.283 34.7304 126.928 34.7304ZM126.87 56.0127L126.783 55.9836C123.435 55.9836 121.339 52.752 121.397 48.1229C121.397 43.6102 123.435 40.233 126.783 40.233C130.16 40.233 132.168 43.6102 132.168 48.0937C132.168 52.7811 130.218 56.0127 126.87 56.0127ZM184.686 47.0748V47.0165C187.743 45.852 188.907 43.7557 188.907 41.6013C188.907 39.0684 187.452 37.2051 185.414 36.2443C183.696 35.4 181.833 35.0798 179.067 34.9924C178.573 34.9633 178.049 34.9633 177.466 34.9633C174.293 34.9633 170.858 35.2253 169.286 35.5456V60.933C170.683 61.195 172.983 61.3988 176.127 61.3988C177.175 61.3988 178.136 61.3697 179.067 61.3115C182.852 61.0495 185.268 60.2634 186.84 59.0988C188.587 57.7887 189.751 55.8672 189.751 53.4216C189.751 50.3064 187.83 47.9482 184.686 47.0748ZM176.156 40.1165C176.622 40.0292 177.292 39.9709 178.427 39.9709C178.631 39.9709 178.864 40 179.038 40C180.96 40.1456 181.92 41.0773 181.92 42.4165C181.92 43.7558 180.989 44.7165 179.038 45.0077C178.573 45.0659 178.078 45.1241 177.525 45.1241H176.156V40.1165ZM179.067 56.2457C178.776 56.2748 178.485 56.3039 178.194 56.3039C177.321 56.3039 176.68 56.3039 176.185 56.2165V50.0444H177.845C178.281 50.0444 178.689 50.0444 179.067 50.1026C181.047 50.3646 182.444 51.2381 182.444 53.0722C182.444 55.0811 180.96 56.0419 179.067 56.2457ZM167.19 47.8608C167.19 40.9317 162.969 34.7304 154.614 34.7304H154.468C146.608 34.8177 141.746 40.7861 141.746 48.2684C141.746 55.4596 146.171 61.4862 154.206 61.4862H154.468C162.299 61.3988 167.19 56.1001 167.19 47.8608ZM154.555 56.0127L154.468 55.9836C151.12 55.9836 149.053 52.752 149.082 48.1229C149.082 43.6102 151.12 40.233 154.468 40.233C157.845 40.233 159.854 43.6102 159.854 48.0937C159.854 52.7811 157.903 56.0127 154.555 56.0127ZM112.052 54.9646C110.975 55.4014 109.083 55.6925 107.423 55.6925C102.649 55.6925 99.8544 52.752 99.8544 48.0937C99.8544 42.8241 103.29 40.4659 107.278 40.4659C109.345 40.4659 111.499 41.0773 112.081 41.3975C113.304 38.6026 113.013 34.7886 106.958 34.7886C99.214 34.7886 92.5182 39.4469 92.5182 48.5305C92.5182 55.4305 96.7977 61.4571 106.492 61.4571C109.578 61.4571 112.023 60.8748 112.984 60.3798L112.052 54.9646ZM82.3 35.1671V61.0786H89.2577V39.4178C89.2286 36.1279 87.4819 35.1671 82.3 35.1671ZM72.1691 45.3861C68.8795 44.1633 67.5113 43.6684 67.5113 42.3583C67.5113 41.1937 68.6757 40.4368 70.8009 40.4368C73.3918 40.4368 75.9246 41.3975 76.4195 41.6595C77.4093 39.0102 77.9624 34.7595 70.8882 34.7595C64.3381 34.7595 60.4662 38.3114 60.4662 42.8823C60.4662 46.7254 63.4065 49.1127 67.7733 50.6849C70.7136 51.6748 71.8489 52.3735 71.8489 53.6545C71.8489 54.9646 70.6845 55.7507 68.2973 55.7507C65.7063 55.7507 63.1736 54.9646 61.5725 54.1203L60.2625 59.8558C61.718 60.6419 64.7457 61.428 67.8606 61.428C75.4297 61.428 78.894 57.614 78.894 53.1596C78.894 49.5786 76.827 47.1039 72.1691 45.3861Z" fill="#003B43"/>
<path d="M58.807 31.9063C58.9526 31.5861 59.0399 31.2367 59.0399 30.8582C59.0399 29.9848 58.545 29.1987 57.8464 28.7911C57.5261 28.6165 57.1768 28.5 56.7983 28.5L33.2469 28.5582L37.0606 35.138L43.2614 45.8228L50.8595 45.7646L58.807 31.9063Z" fill="#00AE9C"/>
<path d="M35.0806 66.2317C35.2843 66.5229 35.5463 66.7558 35.8666 66.9596C36.6235 67.3963 37.5259 67.3672 38.2537 66.9596C38.574 66.7849 38.836 66.5229 39.0397 66.2026L50.83 45.8228H43.2318L30.8594 45.7937L27.0748 52.3735L35.0806 66.2317Z" fill="#B8D335"/>
</svg>
