<svg width="350" height="220" viewBox="0 0 350 220" fill="none" xmlns="http://www.w3.org/2000/svg">
<g filter="url(#filter0_i_1_94)">
<g clip-path="url(#clip0_1_94)">
<path d="M0 12.98C0 5.81133 5.81134 0 12.98 0H337.02C344.189 0 350 5.81134 350 12.98V220H0V12.98Z" fill="#F2F6FA"/>
<g clip-path="url(#clip1_1_94)">
<path d="M292.77 27.9604C292.726 31.429 295.861 33.3647 298.223 34.5154C300.65 35.6963 301.465 36.4534 301.455 37.5093C301.437 39.1254 299.52 39.8386 297.725 39.8664C294.595 39.915 292.775 39.0213 291.328 38.3451L290.2 43.622C291.652 44.2912 294.34 44.8747 297.128 44.9001C303.671 44.9001 307.952 41.6701 307.976 36.6618C308.001 30.306 299.184 29.954 299.244 27.113C299.265 26.2517 300.087 25.3324 301.888 25.0986C302.78 24.9805 305.241 24.8902 308.031 26.1753L309.126 21.0697C307.626 20.5233 305.697 20 303.296 20C297.137 20 292.805 23.274 292.77 27.9604ZM319.65 20.4399C318.455 20.4399 317.448 21.1369 316.999 22.2066L307.651 44.525H314.19L315.492 40.9292H323.482L324.237 44.525H330L324.971 20.4399H319.65ZM320.565 26.9463L322.452 35.9904H317.284L320.565 26.9463ZM284.842 20.4399L279.688 44.525H285.919L291.071 20.4399H284.842ZM275.624 20.4399L269.139 36.8332L266.516 22.8943C266.208 21.3383 264.992 20.4399 263.642 20.4399H253.04L252.892 21.1392C255.068 21.6115 257.541 22.3733 259.039 23.1883C259.956 23.6862 260.218 24.1215 260.519 25.3046L265.487 44.525H272.073L282.168 20.4399H275.624Z" fill="#00233C"/>
</g>
<rect x="38.245" y="74.5151" width="47.0428" height="33.3077" rx="2.91872" fill="url(#paint0_linear_1_94)" stroke="#D4D8DB" stroke-width="1.03014"/>
<path d="M38.4168 85.3316H52.4953" stroke="#D4D8DB" stroke-width="0.960699" stroke-linecap="round"/>
<path d="M38.4168 95.9762H52.1867" stroke="#D4D8DB" stroke-width="0.960699" stroke-linecap="round"/>
<path d="M71.3811 95.9762H85.1162" stroke="#D4D8DB" stroke-width="0.960699" stroke-linecap="round"/>
<path d="M71.1747 85.675H85.1163" stroke="#D4D8DB" stroke-width="0.960699" stroke-linecap="round"/>
<circle cx="61.7665" cy="79.4943" r="1.03014" fill="#D4D8DB"/>
<path d="M110.601 98.3543C113.134 91.9973 113.422 88.4086 110.601 81.9365C110.302 81.2498 110.601 80.6775 110.945 80.563C111.288 80.4486 111.819 80.563 112.146 81.2498C115.47 88.2221 115.267 92.1319 112.318 99.1054C111.975 99.7922 111.332 99.8789 110.945 99.6205C110.491 99.3184 110.387 98.8912 110.601 98.3543Z" fill="#0F92FF"/>
<path d="M106.996 82.4516C106.652 82.6233 106.433 83.2745 106.824 83.9968C109.134 88.8032 109.039 91.5519 106.824 96.5301C106.582 97.0321 106.732 97.5868 107.168 97.732C107.683 97.9037 108.132 97.5383 108.369 97.0452C110.912 91.7545 110.979 88.715 108.369 83.1384C108.128 82.6233 107.511 82.1941 106.996 82.4516Z" fill="#0F92FF"/>
<path d="M103.562 84.6836C103.047 84.8553 102.956 85.4252 103.219 86.0571C104.586 89.3424 104.801 91.1846 103.219 94.4699C102.91 95.0422 102.808 95.6494 103.39 95.8434C103.972 96.0373 104.392 95.7312 104.592 95.3283C106.621 91.3053 106.166 89.0499 104.592 85.027C104.458 84.6836 104.077 84.5119 103.562 84.6836Z" fill="#0F92FF"/>
<path d="M99.9566 86.0571C99.4415 86.4005 99.3683 86.9213 99.7849 87.774C100.654 89.5833 100.634 90.5997 99.7849 92.4096C99.3901 93.2079 99.2698 94.1265 99.9565 94.2982C100.643 94.4699 100.948 94.226 101.33 93.268C102.207 90.7474 102.293 89.322 101.33 86.7439C101.108 86.075 100.643 85.7137 99.9566 86.0571Z" fill="#0F92FF"/>
<path d="M69.3208 81.5543C68.0034 77.0673 65.5437 74.8585 61.5948 74.8585C56.7875 74.8585 55.4289 78.519 52.4953 85.1598C54.3739 89.5559 54.3935 91.9238 52.4953 95.9762C55.5728 104.806 57.8525 107.525 61.7665 107.479C66.9172 107.479 68.3832 103.114 71.2094 95.9762C69.723 91.953 69.5644 89.7329 70.9469 85.7097" stroke="#D4D8DB" stroke-width="0.960699" stroke-linecap="round"/>
</g>
</g>
<defs>
<filter id="filter0_i_1_94" x="0" y="0" width="351.5" height="221.5" filterUnits="userSpaceOnUse" color-interpolation-filters="sRGB">
<feFlood flood-opacity="0" result="BackgroundImageFix"/>
<feBlend mode="normal" in="SourceGraphic" in2="BackgroundImageFix" result="shape"/>
<feColorMatrix in="SourceAlpha" type="matrix" values="0 0 0 0 0 0 0 0 0 0 0 0 0 0 0 0 0 0 127 0" result="hardAlpha"/>
<feOffset dx="1.5" dy="1.5"/>
<feGaussianBlur stdDeviation="1.5"/>
<feComposite in2="hardAlpha" operator="arithmetic" k2="-1" k3="1"/>
<feColorMatrix type="matrix" values="0 0 0 0 1 0 0 0 0 1 0 0 0 0 1 0 0 0 0.05 0"/>
<feBlend mode="normal" in2="shape" result="effect1_innerShadow_1_94"/>
</filter>
<linearGradient id="paint0_linear_1_94" x1="81.7547" y1="78.7446" x2="41.4053" y2="105.644" gradientUnits="userSpaceOnUse">
<stop stop-color="#F4F4F4"/>
<stop offset="1" stop-color="#D6D6D6"/>
</linearGradient>
<clipPath id="clip0_1_94">
<rect width="350" height="220" rx="12.9822" fill="white"/>
</clipPath>
<clipPath id="clip1_1_94">
<rect width="77.1084" height="25" fill="white" transform="translate(252.892 20)"/>
</clipPath>
</defs>
</svg>
